<svg width="24" height="24" xmlns="http://www.w3.org/2000/svg" fill="none">

 <g>
  <title>Layer 1</title>
  <path opacity="0.5" id="svg_1" stroke-linejoin="round" stroke-linecap="round" stroke-width="2" stroke="#000000" d="m12,14.5l0,2m-5,-6.4712c0.47142,-0.0288 1.05259,-0.0288 1.8,-0.0288l6.4,0c0.7474,0 1.3286,0 1.8,0.0288m-10,0c-0.58832,0.0359 -1.00571,0.1167 -1.36197,0.2982c-0.56449,0.2876 -1.02343,0.7465 -1.31105,1.311c-0.32698,0.6418 -0.32698,1.4818 -0.32698,3.162l0,1.4c0,1.6802 0,2.5202 0.32698,3.162c0.28762,0.5645 0.74656,1.0234 1.31105,1.311c0.64173,0.327 1.48181,0.327 3.16197,0.327l6.4,0c1.6802,0 2.5202,0 3.162,-0.327c0.5645,-0.2876 1.0234,-0.7465 1.311,-1.311c0.327,-0.6418 0.327,-1.4818 0.327,-3.162l0,-1.4c0,-1.6802 0,-2.5202 -0.327,-3.162c-0.2876,-0.5645 -0.7465,-1.0234 -1.311,-1.311c-0.3563,-0.1815 -0.7737,-0.2623 -1.362,-0.2982m-10,0l0,-2.0288c0,-2.76142 2.23858,-5 5,-5c2.7614,0 5,2.23858 5,5l0,2.0288"/>
 </g>
</svg>