<svg width="24" height="24" xmlns="http://www.w3.org/2000/svg" fill="none">

 <g>
  <title>Layer 1</title>
  <path opacity="0.5" id="svg_1" fill="#0F0F0F" d="m20,4c1.6569,0 3,1.34315 3,3l0,10c0,1.6569 -1.3431,3 -3,3l-16,0c-1.65685,0 -3,-1.3431 -3,-3l0,-10c0,-1.65685 1.34315,-3 3,-3l16,0zm-0.7471,2l-14.50572,0l6.63322,5.2367c0.3633,0.2869 0.8759,0.2869 1.2393,0l6.6332,-5.2367zm-16.2529,1.1688l0,9.8312c0,0.5523 0.44772,1 1,1l16,0c0.5523,0 1,-0.4477 1,-1l0,-9.83118l-7.1411,5.63768c-1.0899,0.8605 -2.6279,0.8605 -3.7178,0l-7.1411,-5.6377z" clip-rule="evenodd" fill-rule="evenodd"/>
 </g>
</svg>