<svg width="20" height="20" xmlns="http://www.w3.org/2000/svg" version="1.1">
 <title>profile [#1336]</title>
 <desc>Created with Sketch.</desc>

 <g>
  <title>Layer 1</title>
  <g opacity="0.5" fill-rule="evenodd" fill="none" id="Page-1">
   <g fill="#000000" id="Dribbble-Light-Preview">
    <g id="icons">
     <path id="profile-[#1336]" d="m10,12c3.785,0 6.958,2.214 7.784,6l-15.568,0c0.826,-3.786 3.999,-6 7.784,-6m-4,-6c0,-2.206 1.794,-4 4,-4c2.206,0 4,1.794 4,4c0,2.206 -1.794,4 -4,4c-2.206,0 -4,-1.794 -4,-4m7.758,4.673c1.366,-1.099 2.242,-2.783 2.242,-4.673c0,-3.314 -2.686,-6 -6,-6c-3.314,0 -6,2.686 -6,6c0,1.89 0.876,3.574 2.242,4.673c-3.659,1.375 -6.242,4.772 -6.242,9.327l20,0c0,-4.555 -2.583,-7.952 -6.242,-9.327"/>
    </g>
   </g>
  </g>
 </g>
</svg>